<svg version="1.1" id="Layer_1" xmlns="http://www.w3.org/2000/svg" xmlns:xlink="http://www.w3.org/1999/xlink" x="0px" y="0px"
	 width="244.3px" height="227.9px" viewBox="0 0 244.3 227.9" enable-background="new 0 0 244.3 227.9" xml:space="preserve">
<g>
	<g>
		<g>
			<path d="M6.9,115.6V2.3l5.8,0.8c3.5,1.6,8.4,5.4,10.5,8.3C40,28.9,39.8,80.3,39.8,104.5c0,24.9-12.3,31.2-29.1,40.1L7,140.7
				L6.6,141c-1-1-1.4-2.8-1.4-5.6c0-3.8,0.4-8.4,1-12.7c0-0.6,0.1-1.8,0.3-2.4L6.9,115.6z M8,115.8c0,4-3,21.9-1.1,23.8
				c16.1-9,28.2-14.3,28.2-39.3c0-25.8,6.2-80.5-22.8-96.1L8,3.6V115.8z M13.9,21.5c1.7,1.6,3.5,4.2,5.2,8.7
				c3.7,8.8,4.6,42.2,4.6,52.2c0,10.6-1.1,17.8-4.2,26.6c-1.5,4.5-5.6,7.7-6,10.4v-98L13.9,21.5z M18.4,31.3v77.7
				c0-0.1,0-0.3,0.1-0.4c3.1-8.5,4.2-16,4.2-26.2C22.7,73.3,21.5,39.6,18.4,31.3z M21.4,9.5c0-0.1,0-0.1-0.1-0.1L21.4,9.5z"/>
		</g>
		<g>
			<path d="M39.4,139.6c1.5-2.4,1.6-6.1,1.6-9.9c0-0.7-0.1-1.4-0.1-2.1V81.5c0-2.6,0.1-5.4,0.3-8.4c0-1.3,0.1-3.6,0.1-5.2
				c0.1-4.3,0.3-33.3,0.3-37.2c0-3.3-0.1-6.7-0.3-9.9c-0.1-1.5-0.5-3.8-1-5.3c-1-3.3-1.6-7.1-0.7-10.9c0.5-2.1,2.7-2.2,4.8-2.1
				c0.4,0,0.4,0.1,0.8,0.1h21.6v0.8l3.7,3.8c0,5,0.3,9.1,1.4,13.5c-7.2,0-11.3-0.6-17.2-1.5c0,4.3-0.1,8.6-0.3,12.7
				C54.3,35.4,54,62.9,54,66.2v4.2l-0.1-0.1c0,0.4-0.1,0.8-0.1,1.3c-0.1,1.8-0.4,3.9-0.4,5.6c0,1.2,0,2.1,0.1,2.5
				c0.4,0.1,1,0.1,1.8,0.1c0.8,0,1.8-0.3,2.9-0.6l2.9-0.8l0.6,0.7l3.1,4.1c0.4,4,1,8.6,1.6,12.5H62c-2.3,0-5.7,0.1-8.3-0.3l0.3,26.3
				h2.2c1.2,0,2.3,0.1,3.8,0.3c1,0.1,1.8,0.1,2.7,0.1l9.8,0.4v0.8l3.7,3.8v14.6l-31.6,3.2l-3.8-3.9l-0.5,0.1L39.4,139.6z
				 M71.4,136.8v-13.2c-10.7-0.4-15.2-1.5-22.1,0l-0.4-33.3c4.9,1,7.7,0.4,12.6,0.4c-0.7-3.8-1.4-7.7-1.5-10.9c-2.1,0.6-2.9,1-4.6,1
				c-9.7,0-6-35.4-6-43v28.1c0-9.9,0.7-41.9,0.7-51.5c6.1,1.1,10.4,1.7,17.1,1.7c-1-4-1.2-7.7-1.2-12.1H46c-2,0-4.8-0.7-5.2,1.1
				c-1.4,5.4,1.4,11,1.6,15.9c0.8,11.8,0,49.4-0.4,60.6c-0.4,12.7,0,28,0,40.4c0,5.7,0.7,14.3-1.5,18.1L71.4,136.8z"/>
		</g>
		<g>
			<path d="M79.9,138.9c0-10.4-0.1-21-0.4-32l-0.3-12.1c-0.3-13.6-0.5-55.8-0.5-68.2c0-0.1,0-0.7-0.1-1.7c-0.4-3.2-0.7-9.2-0.7-14.1
				c0-3.2,0-5.4,1-6.7c1.5-1.5,5.1-1.4,7.8-1.4h0.5c1.6,0,3.3,0.3,5.6-0.4v1L96.4,7c0,14.2,6,54.6,10,67.4l0.7,2.2
				c0.1-4.6,0.8-9.1,0.8-13.5c-0.1-7,1.3-37.6,1.4-43.8c0-1.1,0.1-2.1,0.3-3.2c0-0.6,0.1-1,0.1-1.5c0-0.4-0.1-1-0.1-1.7
				c0-1,0-2.6,0-3.6c0-2.1,0.1-2.7-1.2-6.4h11.3v0.8l3.7,3.8v15.5c0,2.6,0.1,4.7,0.1,7.4c0,3.2-0.1,30.6-0.4,34
				c-1.1,15-1.5,28.4-1.5,42.3c0,6.3,0.1,12.7,0.3,19.8c0,1.8-0.1,3.5-0.3,5.3c-0.1,1.5-0.3,3.1-0.3,4.6c0,2.2,0.5,4.6,2.3,7.8
				h-13.1l-3.7-3.8H106c-1.1-17.4-4-34.5-8.7-50.1c0,6.3-0.1,12.9-0.4,20.1c-0.1,2.1-0.4,5.3-0.8,8.5c-0.6,5.2-1.2,10.9-1.2,15.5
				c0,2.1,0.1,4,0.8,5.6l0.1,0.1h-0.1c0.1,0.4,0.5,1.1,1.1,1.8l1.9,2H85.1l-3.7-3.8h-0.5L79.9,138.9z M92.2,138.7
				c-4.6-2.9-0.5-24.2-0.1-32.7c0.5-11.6,0.4-20.7,0.4-32.3c8.7,20.1,13.1,42.2,14.6,65.4h11.2c-3.3-5.1-1.1-11.3-1.2-17
				c-0.5-22.6-0.3-40.1,1.2-62.1c0.7-8.8,0.3-39.7,0.3-48V4h-8.2c0.6,5.3,0.1,9,0,15.3c-0.3,14.5-2.5,51.8-2.5,66.8
				c-3.3-7.2-3.7-9.2-5.9-15.6C97.6,57.8,91.6,17.2,91.6,3.8c-2.5,0.7-10.3-1.3-12,1c-1.8,1.8,0.1,20.9,0.1,21.7
				c0,27.6,1.2,84.7,1.2,112.2H92.2z"/>
		</g>
		<g>
			<path d="M139.5,137.8c0-18.9-1.6-39-5.2-56.8c-1.4-6.5-1.9-12.1-2.6-17.7l-1.4-34.9c0-0.1-0.4-1-0.7-2.5l-0.3-1.2
				c-1.5-6.7-4.8-18.9-2.3-20.8V4c0.1-0.1,4.8-0.1,7.2-0.1c0.5,0,1.8,0.1,2.7,0.1l0.1,0.8l3.7,3.8l7.2,68.6
				c0.4-3.3,0.6-6.7,1.1-10.1l0.3-3.5c0.9-11.9,3.6-47,3.6-60h11.1c-0.1,0.1-0.1,0.4-0.1,0.8l3.7,3.8c-1.5,6.7-1.4,15.3-1.9,23.1
				c-0.3,5.4-0.5,35.4-1,39.4c-0.5,5.4-1.2,10.4-1.9,15.9c-2.1,17.4-4.4,36.6-4.4,56.2c-0.1,0-1.1,0.1-1.6,0.1
				c-1.2,0.1-3.3,0.3-5.3,0.3c-2.6,0-5.1-0.1-7.1-0.8l-3.6-3.5l-1-0.4L139.5,137.8z M153.7,138c0-25.5,3.7-48.2,6.3-71.6
				c1.1-9.9,1-51.6,2.7-61.7h-8.6c0,24.1-5.2,68.7-6.4,94.8L136.2,5.1c-0.7,0-8.3-0.4-8.3-0.3c-2.9,1.7,3.6,22.3,3.6,23.4
				c1.5,10.2,1.8,42.2,4,52.5c3.7,17.8,5.2,37.9,5.2,56.9C144.9,139.2,152.7,138,153.7,138z"/>
		</g>
		<g>
			<path d="M167.1,139.6c1.5-2.4,1.6-6.1,1.6-9.9c0-0.7-0.1-1.4-0.1-2.1V81.5c0-2.6,0.1-5.4,0.3-8.4c0-1.3,0.1-3.6,0.1-5.2
				c0.1-4.3,0.3-33.3,0.3-37.2c0-3.3-0.1-6.7-0.3-9.9c-0.1-1.5-0.5-3.8-1-5.3c-1-3.3-1.6-7.1-0.7-10.9c0.5-2.1,2.7-2.2,4.8-2.1
				c0.4,0,0.4,0.1,0.8,0.1h21.6v0.8l3.7,3.8c0,5,0.3,9.1,1.4,13.5c-7.2,0-11.3-0.6-17.2-1.5c0,4.3-0.1,32.9-0.3,36.9
				c-0.1,3.3-0.4,6.5-0.4,9.9v4.2l-0.1-0.1c0,0.4-0.1,0.8-0.1,1.3c-0.1,1.8-0.4,3.9-0.4,5.6c0,1.2,0,2.1,0.1,2.5
				c0.4,0.1,1,0.1,1.8,0.1s1.8-0.3,2.9-0.6l2.9-0.8l0.7,0.6l3,4.1c0.4,4,1,8.6,1.6,12.5h-4.4c-2.3,0-5.7,0.1-8.3-0.3l0.3,26.3h2.2
				c1.2,0,2.3,0.1,3.8,0.3c1,0.1,1.8,0.1,2.7,0.1l9.8,0.4v0.8l3.7,3.8v14.6l-31.6,3.2l-3.8-3.9l-0.5,0.1L167.1,139.6z M199.1,136.8
				v-13.2c-10.7-0.4-15.2-1.5-22.1,0l-0.4-33.3c4.9,1,7.7,0.4,12.6,0.4c-0.7-3.8-1.4-7.7-1.5-10.9c-2.1,0.6-2.9,1-4.7,1
				c-9.7,0-6-11.1-6-18.8v3.9c0-9.9,0.7-41.9,0.7-51.5c6.1,1.1,10.4,1.7,17.1,1.7c-1-4-1.2-7.7-1.2-12.1h-19.8c-2,0-4.8-0.7-5.2,1.1
				c-1.4,5.4,1.4,11,1.6,15.9c0.8,11.8,0,49.4-0.4,60.6c-0.4,12.7,0,28,0,40.4c0,5.7,0.7,14.3-1.5,18.1L199.1,136.8z"/>
		</g>
		<g>
			<path d="M210,2.9c2.7,1,5.6,1.5,8.3,2.2c7.1,1.7,12.8,3.1,16,8.5l2,2c3,2.8,4.4,7.2,4.4,14.9c0,6.5-1.5,12.9-6.3,17.8h0.1
				c-0.4,0.4-2.2,1.2-3.7,2.2c-1.8,1.1-4.1,2.2-4.1,3.8c0,4.3,1.5,7.1,3,10c1,2.1,2,4.2,2.6,5.8c2.6,8.4,4.2,42.3,6,51.2
				c1,5.2,2,10.4,3.1,15.5v6.8h-2.3c-2.6,0-5.2,0-8.5,0.6l-3.8-3.9c-0.4,0-0.4,0.1-0.5,0.1c-1.5-3.8-2.5-7.5-3.4-11.3
				c0.1,5.7,0.3,11.3,0.3,16.3c-1.5-0.4-2.6-0.1-3.8,0c-2.7,0.4-6.2,0.6-7.9-0.7l-3.3-3.3l-1.1-0.6v0.1c-1.2-1-1.5-2.6-1.5-4.7
				c0-1.7,0.1-4,0.6-5.7c0-0.4,0.1-0.6,0.1-1c0.3-1.5,0.4-2.6,0.4-3.3c0-13.6,0.4-51.1,1.2-63.8c0.7-9.6,0.8-19.4,0.8-29
				c0-2.6-0.1-5.2-0.1-7.8V3.8L210,2.9z M209.1,62.4c-0.8,12.7-1.2,50.1-1.2,63.8c0,2.9-2.6,12,0,13.8c2.5,1.8,8.7,0,10.7,0.4
				c0-16.3-0.8-60.6-0.8-77c2.9,17.7,3.7,58.9,9.6,75.7c3.1-0.6,6.3-0.4,9.6-0.4v-6c-3.1-14.1-4.9-53.3-9.2-66.7
				c-1.8-5.4-5.6-9.5-5.6-16c0-2.8,5.6-4.2,7.9-6.5c4.8-4.6,6-11,6-17.3C236,6.5,224.6,8.8,209.7,4
				C209.7,23.6,210.3,42.8,209.1,62.4z M213.7,13.2c6,3.1,12.2,6.1,12.2,14.3c0,6-4,8.5-7.4,11.1c-6.6,5-3.7-10.3-4.8-17V13.2z
				 M218.6,37.1c3.1-2.4,6.2-4.6,6.2-9.6c0-2.8-0.8-5.2-2.3-7c-1.2-1-2.5-1.3-4-2.2v7.4c0.4,2.1,0.3,5.3,0.3,7.9
				C218.8,34.9,218.6,36,218.6,37.1z M225.2,22.8c0.1,0,0.1,0,0.1,0.1L225.2,22.8z"/>
		</g>
	</g>
	<g>
		<g>
			<path d="M181.3,161h-5.5v60c2.5,2.5,10.7-0.2,15.5-0.2c0-2.4,0.5-4.1,0.5-6.2c-4.2-0.4-6.2-2-10.4-2V161z"/>
		</g>
		<g>
			<path d="M95.1,212.9l-0.2-18.2c2.7,0.5,4.2,0.2,6.9,0.2c-0.4-2.1-0.7-4.2-0.8-5.9c-1.1,0.3-1.6,0.5-2.5,0.5
				c-5.3,0-3.3-6.1-3.3-10.3v2.1c0-5.4,0.4-9.7,0.4-14.9c3.4,0.6,5.7,0.9,9.3,0.9c-0.5-2.2-0.7-4.2-0.7-6.6H93.3
				c-1.1,0-2.6-0.4-2.8,0.6c-0.7,3,0.7,6,0.9,8.7c0.5,6.5,0,13.8-0.2,19.8c-0.2,6.9,0,15.3,0,22.1c0,3.1,0.4,7.8-0.8,9.9l16.9-1.7
				v-7.2C101.3,212.7,98.9,212,95.1,212.9z"/>
		</g>
		<g>
			<path d="M199.5,212.9l-0.2-18.2c2.7,0.5,4.2,0.2,6.9,0.2c-0.4-2.1-0.7-4.2-0.8-5.9c-1.1,0.3-1.6,0.5-2.5,0.5
				c-5.3,0-3.3-6.1-3.3-10.3v2.1c0-5.4,0.4-9.7,0.4-14.9c3.4,0.6,5.7,0.9,9.3,0.9c-0.5-2.2-0.7-4.2-0.7-6.6h-10.8
				c-1.1,0-2.6-0.4-2.8,0.6c-0.7,3,0.7,6,0.9,8.7c0.4,6.5,0,13.8-0.2,19.8c-0.2,6.9,0,15.3,0,22.1c0,3.1,0.4,7.8-0.8,9.9l16.9-1.7
				v-7.2C205.8,212.7,203.3,212,199.5,212.9z"/>
		</g>
		<g>
			<path d="M156.7,221.6c-0.2-1,2.8-0.2,4.7,0c1.2-5.3-0.1-15-0.2-20.9c-0.1-1.2-0.6-4.6,0-6.2c0-0.2,1-0.2,1.9-0.3
				c0.5-0.1,1.2-0.1,1.9-0.1h-1.4c2,0,3-0.1,5,0.2v-5.1l-7.2,0.2c0.4-4.6,1-8.6,1-13.7c0-3.3-1.3-6.1,1.1-7.5h8.2v-7.8h-15.1V221.6z
				"/>
		</g>
		<g>
			<path d="M111.3,162.1c0.3,2.4,0.2,4.4,0.2,7.1h3.6c2.6,2.1,1.4,9.4,1.4,14.1c0,7.7-1.4,20-1.4,26.8c0,4.4,0.8,6.8,1.2,11.3
				c2.4,0.4,4.6-0.4,6.5,0.2l-3.3-52.7h5.7c0.2-3.3,0-5.1,0-8.1C120.2,161.2,116.1,162.1,111.3,162.1z"/>
		</g>
		<g>
			<path d="M32.5,162.1c0.3,2.4,0.2,4.4,0.2,7.1h3.6c2.6,2.1,1.4,9.4,1.4,14.1c0,7.7-1.4,20-1.4,26.8c0,4.4,0.8,6.8,1.2,11.3
				c2.4,0.4,4.6-0.4,6.5,0.2l-3.3-52.7h5.7c0.2-3.3,0-5.1,0-8.1C41.4,161.2,37.3,162.1,32.5,162.1z"/>
		</g>
		<g>
			<path d="M59.4,186c0-1.5,3.1-2.3,4.3-3.6c2.6-2.5,3.3-6,3.3-9.4c0-10.8-6.2-9.5-14.3-12.2c0,10.7,0.3,21.2-0.4,31.9
				c-0.4,6.9-0.7,14.1-0.7,21.6c0,1.6-1.4,6.5,0,7.5c1.3,1,4.8,0,5.8,0.2c0-8.9-0.5-19.8-0.5-28.8c1.6,9.7,2,18.9,5.2,28.1
				c1.7-0.3,3.4-0.2,5.2-0.2v-3.3c-1.7-7.7-2.7-15.9-5-23.2C61.5,191.7,59.4,189.5,59.4,186z M61.2,171.1
				C61.2,171.1,61.2,171.1,61.2,171.1C61.2,171.1,61.2,171.1,61.2,171.1z M54.8,170.5v-4.6c3.3,1.7,6.6,3.3,6.6,7.8
				c0,3.3-2.2,4.6-4,6.1C53.9,182.5,55.4,174.1,54.8,170.5z"/>
		</g>
		<g>
			<path d="M230.9,160.6c-2.4,0-7.2-1.3-8.7,0c-0.4,0.4-0.4,5.5-0.4,5.9c-0.7,5.5-1.5,10.9-2.5,16.3c-1.7,10.1-2.5,22-4.3,31.9v6.8
				h5.4l3.1-20.9h8c0.2,7.5,2.8,13.2,3.1,19.8h4.3v-3.2c-1.2-12.8-3.4-28.8-5.1-42.4C233.2,169.8,230.9,165.9,230.9,160.6z
				 M223.8,195.3c0-9.3,1.8-17.9,1.8-27h2.4l3.8,27C229.5,194.9,226,194.8,223.8,195.3z"/>
		</g>
		<g>
			<path d="M28.4,170.1c-2-5.6-6.3-8.4-12.3-8.4c-8,0-8.6,4.8-8.6,12.3c0,9.7,2.8,15.8,7.2,23.3c1.9,3.4,5.8,7.8,5.8,12.2
				c0,1.7-0.5,5.2-2.7,5.2c-3.4,0-6.1-7.2-6.7-10.3H4.9c0.4,8.8,4.4,15.7,14.3,15.7c5.9,0,6.9-1.4,6.9-8.7v1.9c0-6,0.6-13-2.4-17.9
				c-3.8-6.1-10.9-7.9-10.9-16.7c0-3.4,1-10,5.3-10c5.4,0,9.1,3.7,9.6,9.3C27.8,176.3,29.8,173.7,28.4,170.1z"/>
		</g>
		<g>
			<path d="M75.4,212.9l-0.2-18.2c2.7,0.5,4.2,0.2,6.9,0.2c-0.4-2.1-0.7-4.2-0.8-5.9c-1.1,0.3-1.6,0.5-2.5,0.5
				c-5.3,0-3.3-6.1-3.3-10.3v2.1c0-5.4,0.4-9.7,0.4-14.9c3.4,0.6,5.7,0.9,9.3,0.9c-0.5-2.2-0.7-4.2-0.7-6.6H73.6
				c-1.1,0-2.6-0.4-2.8,0.6c-0.7,3,0.7,6,0.9,8.7c0.5,6.5,0,13.8-0.2,19.8c-0.2,6.9,0,15.3,0,22.1c0,3.1,0.4,7.8-0.8,9.9l16.9-1.7
				v-7.2C81.6,212.7,79.2,212,75.4,212.9z"/>
		</g>
		<g>
			<path d="M21.4,223.1c-4.1,0-7.4-1.3-10.4-3.9l-0.7-0.7c-3.9-2.8-6-7.7-6.3-14.7l0-0.3h8v0.3c0,0.1,0,0.2,0,0.2c0,0.1,0,0.1,0,0.2
				l1.9,1.9l0,0.1c0.2,1.9,1.4,5,2.7,7.2c0.3,0.3,0.8,0.4,1.2,0.4c1.7,0,1.8-3.6,1.8-4.3c0-2.2-1.4-4.6-2.7-6.8
				c-0.3-0.5-0.6-1-0.9-1.5l-0.5-0.9c-0.4-0.5-0.7-1-1-1.6v0.1l-0.6-0.9c-4-6.9-7.4-13.4-7.4-23.9c0-8,0.7-13.2,9.5-13.2
				c5.1,0,9.1,2,11.6,5.8l0.5,0.5c1.3,1.3,2.4,3,3.1,5.1c0.3,1,0.5,1.9,0.5,2.8c0,1.5-0.3,2.6-0.7,3.7l-0.1,0.4
				c-0.2,0.8-0.5,1.5-0.3,2l0.1,0.3l-1.2,0.3l-0.1-0.1l-1.3-1.3l0,0.4l-0.3-0.7l-0.4-0.4l-0.6,0.1l0-0.3c-0.1-2.6-0.8-4.7-2.1-6.4
				c-1.3-0.7-2.8-1.1-4.4-1.1c-3.7,0-4.6,5.8-4.6,9.3c0,2.7,0.7,4.9,2,6.9l1.7,1.5l0.7,0.7c1.4,1.4,2.6,2.8,3.7,4.1
				c0.2,0.2,0.4,0.4,0.6,0.6c0.7,0.8,1.5,1.6,2.1,2.5c2.3,3.7,2.5,8.4,2.5,12.9v5.7h-0.1C28.6,221.6,27,223.1,21.4,223.1z
				 M10.4,217.8c0.1,0.1,0.2,0.1,0.3,0.2l0.8,0.7c2.8,2.5,6.1,3.7,10,3.7c5.4,0,6.7-1.3,6.9-6.9l0-0.3h0.1v-5.1
				c0-4.4-0.2-9-2.4-12.6c-0.6-0.9-1.3-1.7-2-2.4c-0.1-0.1-0.2-0.2-0.3-0.3c0.1,0.1,0.2,0.2,0.2,0.3c2.6,4.3,2.5,9.9,2.5,15.4
				c0,0.9,0,1.8,0,2.6h0c-0.2,5.9-1.7,7.1-7.2,7.1C15.6,220.4,12.7,219.5,10.4,217.8z M5.2,204.7c0.3,5.8,2.6,15.1,13.9,15.1
				c5.6,0,6.6-1.3,6.6-8.4h0c0-0.2,0-0.5,0-0.7c0.1-5.4,0.2-11-2.4-15.1c-1.3-2.1-3-3.7-4.7-5.2c-3.2-3-6.2-5.8-6.2-11.6
				c0-1.1,0.2-10.3,5.6-10.3c5,0,8.6,3.1,9.7,8.1c0-0.1,0.1-0.2,0.1-0.4c0.5-1.6,1.2-3.5,0.3-6c-1.9-5.3-6.1-8.2-12-8.2
				c-7.7,0-8.3,4.5-8.3,12c0,9.2,2.4,15,7.2,23.2c0.5,0.8,1,1.7,1.7,2.7c1.9,3,4.1,6.3,4.1,9.7c0,1.9-0.6,5.5-3,5.5
				c-3.7,0-6.3-7.4-7-10.3H5.2z M11.5,204.6c0.6,2.9,2.5,7.6,4.7,9.2c-1.4-2.3-2.6-5.4-2.8-7.4L11.5,204.6z M16.2,200.3l0.4,0.8
				c0.3,0.5,0.6,1,0.9,1.5c1.3,2.2,2.7,4.7,2.7,7.1c0,0.2,0,0.4,0,0.7c0-0.3,0-0.5,0-0.7C20.2,206.4,18.1,203.1,16.2,200.3
				c-0.6-1-1.2-1.9-1.7-2.7c-2.6-4.5-4.6-8.3-5.8-12.4c1.2,4.2,3.1,7.8,5.2,11.5v-0.1l0.6,0.9C15.2,198.7,15.6,199.4,16.2,200.3
				L16.2,200.3z M4.6,204.1h6.8l0,0.2c0,0,0,0,0,0c0-0.1,0-0.1,0-0.2c0,0,0,0,0-0.1L4.6,204.1L4.6,204.1z M18.1,169
				c-3.9,0-5,6.1-5,9.7c0,4.3,1.7,6.9,4,9.2c-1.3-2-1.9-4.2-1.9-6.9c0-4.6,1.4-9.9,5.2-9.9c1.8,0,3.4,0.4,4.8,1.2l0.1,0.1
				c0.6,0.8,1.2,1.7,1.5,2.7C25.3,171.3,22.2,169,18.1,169z M28.1,179.2l1.7,1.7l0.3-0.1c-0.1-0.6,0.1-1.3,0.4-2l0.1-0.4
				c0.4-1.1,0.7-2.1,0.7-3.5c0-0.8-0.2-1.7-0.4-2.6c-0.7-1.9-1.7-3.5-3-4.8l-0.5-0.5c-2.4-3.7-6.2-5.5-11.1-5.5
				c-8.3,0-8.9,4.8-8.9,12.6c0,1.3,0.1,2.5,0.1,3.6c-0.1-1.2-0.1-2.4-0.1-3.6c0-7.6,0.6-12.6,8.9-12.6c6.2,0,10.6,3,12.6,8.6
				c1,2.7,0.2,4.8-0.3,6.4c-0.2,0.7-0.4,1.2-0.5,1.7c0,0.1,0,0.2,0,0.3c0,0.2,0.1,0.4,0.1,0.5L28.1,179.2z"/>
		</g>
		<g>
			<path d="M27.8,178.9c0-0.3-0.1-0.6-0.1-0.9C27.7,178.3,27.7,178.6,27.8,178.9z"/>
		</g>
		<g>
			<path d="M46.9,224.9l-0.4-0.2c-0.7-0.2-1.3-0.4-2.1-0.4c-0.4,0-0.8,0-1.2,0.1l-0.2,0c-0.5,0-0.9,0.1-1.5,0.1
				c-0.8,0-1.6-0.1-2.3-0.2l-0.1,0l-1.9-2c-0.1,0-0.1,0-0.2,0c-0.1,0-0.1,0-0.2,0h-0.3l0-0.3c-0.2-1.1-0.3-2.3-0.4-3.4l-0.4-3.2
				c-0.2-1.6-0.4-3.2-0.4-5.3c0-3,0.2-7.6,0.7-12.8c0.4-4.8,0.7-10.3,0.7-14c0-0.9,0-1.7,0.1-2.7l0.1-1c0.1-1.2,0.2-3,0.2-4.2
				c0-1,0-2.2-0.3-3.3h-2.4l-2-2.1h-0.6v-2.2c0-2.1,0-3.7-0.2-5.7l0-0.1l0.6-0.8h0.2c3.1,0,5.9-0.3,8.5-0.7c1-0.1,2.1-0.2,3.3-0.3
				c1-0.1,1.9-0.2,2.9-0.3l0.3,0v0.7l2,2.1v0.1c0,0.6,0,1.2,0,1.8c0,0.5,0,1,0,1.4c0.1,1.8,0.1,3.8-0.1,5.7l0,0.3h-5.6L46.9,224.9z
				 M44.4,223.8c0.7,0,1.3,0.1,1.9,0.3L43,171.3h5.7c0.2-1.8,0.1-3.7,0.1-5.4c0-0.4,0-0.9,0-1.4c0-0.5,0-1.1,0-1.7l-2-2v0
				c0,1,0,1.9,0.1,2.8c0,1.6,0.1,3.1-0.1,5.4l0,0.3H41l3.3,52.8l-0.4-0.1c-0.5-0.2-1.1-0.2-1.8-0.2c-0.5,0-1,0-1.5,0.1
				c-1,0.1-2.2,0.1-3.1,0l0.1,0.1l1.9,1.9c0.6,0.1,1.3,0.2,2.1,0.2c0.5,0,1,0,1.4-0.1l0.2,0C43.5,223.8,43.9,223.8,44.4,223.8z
				 M37.2,221.7C37.2,221.7,37.2,221.7,37.2,221.7c0.1,0,0.2,0,0.3,0h0c0,0,0,0,0,0L37.2,221.7l0-0.2c-0.2-1.8-0.4-3.2-0.6-4.6
				c0-0.3-0.1-0.6-0.1-0.8l0.3,2.5C36.9,219.5,37,220.6,37.2,221.7z M42.1,221.1c0.6,0,1.1,0,1.6,0.2l-3.3-52.6h5.7
				c0.1-2,0.1-3.5,0-5c0-0.8,0-1.6-0.1-2.5c-1.8,0.1-3.6,0.4-5.3,0.6c-2.7,0.3-5.2,0.7-8,0.7c0.2,1.9,0.2,3.6,0.2,5.5l0,1h3.4
				l0.1,0.1c2.1,1.7,1.9,6.3,1.7,10.8c-0.1,1.3-0.1,2.5-0.1,3.6c0,4-0.4,9.2-0.7,14.2c-0.3,4.8-0.7,9.4-0.7,12.7
				c0,2.6,0.3,4.6,0.6,6.6c0.2,1.3,0.4,2.7,0.6,4.4c0.8,0.1,1.9,0.1,2.9,0C41.1,221.1,41.6,221.1,42.1,221.1z M37.4,182.3
				c0,0.3,0,0.7,0,1c0,3.8-0.4,9.2-0.7,14.1c-0.4,5.2-0.7,9.8-0.7,12.7c0,0.7,0,1.4,0.1,2c0-0.6-0.1-1.3-0.1-2
				c0-3.3,0.3-7.9,0.7-12.7c0.4-5,0.7-10.2,0.7-14.1C37.4,183,37.4,182.6,37.4,182.3z M34.7,171.5h2.6l0.1,0.2
				c0.1,0.3,0.1,0.6,0.2,0.9c-0.2-1.4-0.6-2.6-1.3-3.2h-3.8v-1.6c0-1.9,0-3.5-0.2-5.4c0.2,1.9,0.2,3.4,0.2,5.4v1.6h0.3L34.7,171.5z"
				/>
		</g>
		<g>
			<path d="M56,225.3c-1.1,0-2-0.2-2.5-0.6l-1.8-1.8l-0.1-0.1v0.1l-0.5-0.3c-0.8-0.7-0.9-1.8-0.9-2.8c0-0.9,0.1-2.2,0.3-3.2
				c0-0.1,0-0.2,0-0.3c0-0.1,0-0.1,0-0.2c0.2-0.9,0.2-1.5,0.2-1.8c0-7.5,0.2-14.8,0.7-21.6c0.4-5.6,0.4-11.1,0.4-15.8
				c0-0.7,0-1.4,0-2.1c0-0.7,0-1.4,0-2.1v-12.1l1-0.7l0.1,0.1c1.1,0.4,2.2,0.6,3.3,0.9c0.4,0.1,0.8,0.2,1.2,0.3
				c3.8,0.9,7.1,1.7,8.9,4.7l1.1,1c1.7,1.6,2.5,4.1,2.5,8.4c0,4-1,7.1-3,9.4H67l-0.5,0.5c-0.1,0.1-0.4,0.3-0.9,0.6
				c-0.4,0.2-0.8,0.4-1.1,0.7c-0.2,0.1-0.3,0.2-0.5,0.3c-0.8,0.5-1.6,1-1.6,1.5c0,2.2,0.7,3.6,1.5,5.2l0.1,0.2
				c0.2,0.3,0.3,0.7,0.5,1c0.4,0.8,0.7,1.6,1,2.2c1.1,3.7,1.9,7.8,2.7,11.8c0.2,1,0.4,2,0.6,3c0.5,2.7,1.1,5.5,1.7,8.4l0,1.4l0,0.1
				c0,0,0,0,0,0l0,0.2v2.4h-1.6c-1.4,0-2.8,0-4.6,0.3l-0.2,0l-0.1-0.1l-2-2c0,0-0.1,0.1-0.2,0.1h-0.2l-0.1-0.2
				c-0.5-1.2-0.9-2.5-1.2-3.8c0.1,2.2,0.1,4.4,0.1,6.4v0.4l-0.4-0.1c-0.6-0.1-1.1-0.1-1.6,0l-0.3,0C57.3,225.2,56.6,225.3,56,225.3z
				 M52.1,222.4l1.8,1.8c0.7,0.4,2.1,0.6,4.1,0.3l0.3,0c0.5-0.1,1-0.1,1.5,0c0-2.4-0.1-4.9-0.1-7.6l-0.1-3.5l0.7,2.6
				c0.5,1.9,1,3.9,1.7,5.8c0,0,0,0,0.1,0l-0.1-0.2c-2.3-6.7-3.2-13.2-4.1-20.2c-0.2-1.3-0.3-2.5-0.5-3.8c0,3.3,0.1,6.8,0.2,10.3
				c0.1,4.9,0.2,9.9,0.2,14.4v0.4l-0.4-0.1c-0.3-0.1-1,0-1.7,0.1c-0.6,0.1-1.4,0.1-2.1,0.1C53,222.6,52.5,222.5,52.1,222.4z
				 M62.2,221.7l2.1,2.1c1.7-0.3,3.2-0.3,4.5-0.3h1l0-1.8l-0.1-0.2l0.1-0.1c0,0,0-0.1,0-0.1v-1.2c-0.6-2.9-1.2-5.7-1.7-8.4
				c-0.2-1-0.4-2-0.6-3c-0.8-4-1.6-8.1-2.7-11.7c-0.2-0.6-0.6-1.4-0.9-2.2c-0.2-0.3-0.3-0.7-0.5-1l-0.1-0.1
				c-0.8-1.5-1.6-3.1-1.6-5.5c0-0.9,1-1.5,1.9-2c0.2-0.1,0.3-0.2,0.5-0.3c0.4-0.2,0.8-0.5,1.2-0.7c0.2-0.1,0.4-0.2,0.6-0.3l0.2-0.2
				c2.3-2.3,3.4-5.4,3.4-9.5c0-4.1-0.7-6.4-2.3-7.9l-1.1-1c0.9,1.5,1.4,3.6,1.4,6.7c0,4.3-1.1,7.5-3.4,9.6c-0.5,0.5-1.3,1-2,1.4
				c-1.1,0.6-2.2,1.2-2.2,2c0,2.2,0.8,3.9,1.7,5.7c0.5,0.9,1,1.9,1.3,3c1.5,4.7,2.4,9.9,3.4,14.9c0.5,2.8,1,5.6,1.6,8.4l0,3.6
				l-2.1,0C64.6,221.5,63.4,221.5,62.2,221.7L62.2,221.7z M53,161.2c0,2.4,0,4.8,0,7.1c0.1,8,0.1,16.2-0.4,24.4
				c-0.4,6.9-0.7,14.2-0.7,21.6c0,0.5-0.1,1.2-0.2,2.1c-0.3,1.8-0.7,4.6,0.1,5.2c0.4,0.3,1,0.4,1.8,0.4c0.7,0,1.4-0.1,2-0.1
				c0.6-0.1,1.1-0.1,1.5-0.1c0-4.4-0.1-9.3-0.2-14c-0.1-4.9-0.2-10-0.2-14.5l0.6,0c0.4,2.7,0.8,5.4,1.1,8c0.9,6.9,1.8,13.3,4,19.9
				c1.1-0.2,2.2-0.2,3.3-0.2l1.5,0v-3c-0.6-2.7-1.1-5.5-1.6-8.3c-0.9-5-1.9-10.1-3.3-14.8c-0.3-1-0.8-2-1.3-2.9
				c-0.9-1.8-1.8-3.6-1.8-5.9c0-1.1,1.3-1.8,2.5-2.5c0.7-0.4,1.5-0.8,1.9-1.3c2.2-2.1,3.2-5.1,3.2-9.2c0-8.4-3.7-9.2-9.4-10.6
				C56,162,54.5,161.7,53,161.2z M51.8,195.1c-0.3,6.1-0.5,12.6-0.5,19.2c0,0.1,0,0.2,0,0.4c0-0.2,0-0.3,0-0.4
				C51.3,207.8,51.5,201.3,51.8,195.1z M52.4,160.9v11.8c0,0.7,0,1.4,0,2.1c0,0.5,0,0.9,0,1.4c0-2.6,0-5.2,0-7.8
				C52.4,165.9,52.4,163.4,52.4,160.9L52.4,160.9z M52.8,160.5c1.6,0.5,3.1,0.9,4.6,1.2c3.1,0.7,5.7,1.4,7.4,3.1
				c-1.8-1.8-4.5-2.5-7.6-3.2c-0.4-0.1-0.8-0.2-1.2-0.3C55,161.1,53.9,160.9,52.8,160.5L52.8,160.5z"/>
		</g>
		<g>
			<path d="M56.2,180.6L56.2,180.6c-0.3,0-0.6-0.1-0.8-0.3c-0.8-0.8-0.8-3.2-0.8-5.7c0-1.5,0-3-0.2-4v-5.2l0.5,0.3
				c3.3,1.7,6.7,3.4,6.7,8.1c0,3.2-2,4.7-3.7,6l-0.4,0.3C57.1,180.4,56.6,180.6,56.2,180.6z M55.1,166.3v4.1
				c0.2,1.1,0.2,2.6,0.2,4.1c0,2.2,0,4.6,0.6,5.3c0.1,0.1,0.2,0.2,0.4,0.2l0,0c0.3,0,0.6-0.2,1-0.5l0.4-0.3c1-0.7,1.9-1.5,2.6-2.5
				c-0.7,1-1.6,1.7-2.6,2.4l-0.5,0.4l0-0.6c0-0.3,0-0.6,0-0.9c0-0.3,0-0.6,0-1c0-0.3,0-0.6,0-0.9c0-1.2,0-2.5-0.2-3.4l0-4.6l0.5,0.3
				c0.3,0.2,0.7,0.4,1,0.5c0.4,0.2,0.8,0.4,1.2,0.7c0.9,1.1,1.4,2.5,1.4,4c0,0.9-0.2,1.6-0.4,2.2c0.3-0.6,0.4-1.4,0.4-2.2
				C61.2,169.5,58.3,167.9,55.1,166.3z M57.7,169.2v3.5c0.2,0.9,0.2,2.2,0.2,3.5c0,0.3,0,0.6,0,0.9c0,0.4,0,0.7,0,1
				c0,0.1,0,0.2,0,0.3c1.5-1.1,2.7-2.3,2.7-4.6c0-1.4-0.4-2.6-1.2-3.6c-0.3-0.2-0.7-0.4-1.1-0.6C58.1,169.4,57.9,169.3,57.7,169.2z"
				/>
		</g>
		<g>
			<path d="M72.7,224.8l-2.1-2.1l-0.4,0.1l-0.5-1.1v-0.4l0-0.1c0.7-1.3,0.8-3.2,0.8-5c0-0.2,0-0.4,0-0.5c0-0.2,0-0.4,0-0.6v-25.2
				c0-1.2,0.1-2.5,0.1-3.8l0-0.8c0-0.3,0-0.8,0-1.3c0-0.5,0-1.1,0-1.5l0-0.5c0.1-2.3,0.1-4.6,0.1-6.6c0-1.6-0.1-3.3-0.1-4.9l0-0.5
				c-0.1-0.8-0.3-2-0.5-2.8c-0.5-1.6-0.9-3.8-0.4-6.1c0.4-1.4,1.8-1.4,2.3-1.4c0.2,0,0.4,0,0.6,0c0,0,0,0,0,0c0.1,0,0.2,0,0.3,0
				c0,0,0.1,0,0.1,0h12.1v0.6l2,2.1v0.1c0,2.6,0.1,4.8,0.7,7.3l0.1,0.4h-0.4c-3.9,0-6.2-0.3-9.1-0.8c0,2.2-0.1,4.4-0.2,6.6
				c0,0.7-0.1,1.3-0.1,2c-0.1,1.1-0.1,2.3-0.1,3.4v3.1l-0.1-0.2c0,0.3-0.1,0.6-0.1,0.9c-0.1,0.7-0.1,1.4-0.1,2.1c0,0.5,0,0.9,0,1.1
				c0.2,0,0.4,0,0.7,0c0.4,0,0.8-0.1,1.3-0.2l2.1-0.6v0.9l2,2l0,0.1c0.3,2.6,0.6,5,0.9,6.8l0.1,0.4l-3.5,0c-0.3,0-0.6,0-0.9,0
				c-0.8,0-1.7,0-2.6-0.1l0.1,13.7h0.9c0.5,0,1,0,1.6,0.1l0.5,0c0.5,0.1,1,0.1,1.5,0.1l5.7,0.2v0.6l2,2l0,5.9c0,0.1-0.1,0.2-0.1,0.4
				c-0.1,0.2-0.1,0.5-0.2,0.7l0.3,0.7v0.7l-0.3,0L72.7,224.8z M70.9,222.1l2,2.1l16.8-1.7v-0.1l-0.4-0.8l0.1-0.2
				c0.1-0.2,0.2-0.4,0.2-0.7c0-0.1,0.1-0.3,0.1-0.4v-5.5l-2-2v-0.3l-3-0.1c0.8,0.1,1.7,0.1,2.7,0.1l0.3,0v7.8l-0.3,0L70.9,222.1z
				 M72,161c-0.8,0-0.9,0.2-1,0.4c-0.5,1.8,0,3.7,0.4,5.5c0.2,1.1,0.5,2.1,0.5,3.1c0.4,5.3,0.1,11.3-0.1,16.5c0,1.1-0.1,2.3-0.1,3.3
				c-0.2,4.7-0.1,10,0,15.1c0,2.4,0,4.8,0,7c0,0.6,0,1.2,0,1.8c0.1,2.8,0.1,5.8-0.6,7.7l16.1-1.7v-6.7c-1.5-0.1-2.8-0.2-4-0.2
				c-1.4-0.1-2.6-0.2-3.8-0.2c-1.4,0-2.6,0.1-4,0.4l-0.4,0.1l0-0.4l-0.2-18.5l0.4,0.1c1.1,0.2,2,0.3,3.2,0.3c0.5,0,1,0,1.6,0
				c0.5,0,1.1,0,1.7,0c-0.3-1.9-0.6-3.7-0.7-5.2c-0.1,0-0.2,0.1-0.3,0.1c-0.7,0.2-1.2,0.3-1.9,0.3c-1.3,0-2.3-0.4-3-1.1
				c-1.3-1.5-1.1-4.1-0.8-6.6c0.1-1,0.2-2,0.2-2.8h0c0-1.9,0.1-3.7,0.2-5.4c0.1-2.3,0.2-4.7,0.2-7.3v-0.4l0.3,0.1
				c3.3,0.6,5.5,0.9,8.9,0.9c-0.4-1.8-0.6-3.6-0.6-6H73.6c-0.2,0-0.5,0-0.8,0C72.5,161,72.3,161,72,161z M71.1,209.4v5.7
				c0,0.2,0,0.4,0,0.5c0,0.1,0,0.1,0,0.2c0-0.7,0-1.4,0-2c0-0.6,0-1.3,0-1.8C71.1,211.1,71.1,210.3,71.1,209.4z M75.4,195.1
				l0.2,17.4c1.2-0.2,2.4-0.4,3.7-0.4c0.2,0,0.4,0,0.5,0c-0.3,0-0.6,0-0.8,0h-1.5v-0.3l-0.2-14.7l0.3,0.1c0.9,0.1,2,0.2,2.8,0.2
				c0.3,0,0.6,0,0.9,0l2.8,0c-0.3-1.8-0.6-4-0.8-6.4l-2-2v-0.3l-1.4,0.4c-0.5,0.1-0.9,0.2-1.3,0.3c0.6,0,1-0.1,1.6-0.3
				c0.2-0.1,0.4-0.1,0.7-0.2l0.4-0.1l0,0.4c0.1,1.7,0.4,3.7,0.8,5.9l0.1,0.4H82c-0.8,0-1.4,0-2,0C78.3,195.3,76.9,195.3,75.4,195.1z
				 M71.3,170.2l0,0.4c0.1,1.6,0.1,3.3,0.1,4.9c0,2-0.1,4.3-0.1,6.6l0,0.5c0,0.4,0,1,0,1.5c0,0.5,0,0.9,0,1.3l0,0.8
				c-0.1,1.3-0.1,2.6-0.1,3.8v0.3c0-0.1,0-0.2,0-0.3c0-1.1,0.1-2.2,0.1-3.3C71.5,181.4,71.7,175.5,71.3,170.2z M75.5,181.4
				c0,0.3,0,0.5-0.1,0.8c-0.2,2.4-0.5,4.9,0.7,6.2c0.3,0.4,0.8,0.6,1.4,0.8l-0.1,0l0-0.1c-0.1-0.3-0.1-0.7-0.1-1.5
				c0-0.6,0.1-1.4,0.1-2.1c0-0.3,0.1-0.6,0.1-0.9c0-0.1,0-0.2,0-0.4c0-0.1,0-0.2,0-0.3v-0.8l0.1,0.1v-1.5c0-1.2,0.1-2.3,0.1-3.5
				c0-0.6,0.1-1.3,0.1-2c0.1-2.3,0.2-4.6,0.2-6.9v-0.4l0.3,0.1c2.9,0.5,5.2,0.8,9,0.8c-0.5-2.4-0.7-4.5-0.7-6.9l-2-2.1v-0.3H73.2
				c0.1,0,0.2,0,0.3,0h11.1v0.3c0,2.6,0.2,4.5,0.7,6.5l0.1,0.4h-0.4c-3.5,0-5.9-0.3-9-0.9c0,2.5-0.1,4.8-0.2,7
				c-0.1,2.4-0.2,4.8-0.2,7.6H75.5z M72.2,160.4c-1,0-1.6,0.3-1.8,0.9c-0.5,2.1-0.1,4.2,0.4,5.8c0.2,0.9,0.4,2,0.5,2.8
				c-0.1-0.9-0.3-1.8-0.5-2.8c-0.4-1.9-0.9-3.8-0.4-5.8c0.2-0.9,1.2-0.9,1.6-0.9c0.3,0,0.5,0,0.8,0c0.1,0,0.1,0,0.2,0
				c-0.1,0-0.1,0-0.1,0c0,0-0.1,0-0.1,0C72.5,160.4,72.4,160.4,72.2,160.4z"/>
		</g>
		<g>
			<path d="M70,221.6l0.1,0.1v-0.3C70,221.5,70,221.6,70,221.6z"/>
		</g>
		<g>
			<path d="M92.4,224.8l-2.1-2.1l-0.4,0.1l-0.2-0.4l0-2c0.3-1.1,0.5-2.5,0.5-4.2c0-0.2,0-0.4,0-0.5c0-0.2,0-0.4,0-0.6v-25.2
				c0-1.4,0.1-2.8,0.1-4.3l0-0.2c0-0.3,0-0.8,0-1.3c0-0.5,0-1.1,0-1.5c0.1-2.3,0.2-4.9,0.2-7.1c0-1.8-0.1-3.5-0.2-5.2l0-0.2
				c-0.1-0.8-0.3-2-0.5-2.8c-0.5-1.6-0.9-3.8-0.4-6.1c0.4-1.4,1.9-1.4,2.3-1.4c0.2,0,0.4,0,0.6,0c0,0,0,0,0,0c0.1,0,0.2,0,0.3,0
				c0,0,0.1,0,0.1,0H105v0.6l2,2.1v0.1c0,2.6,0.1,4.8,0.7,7.3l0.1,0.4h-0.4c-3.9,0-6.2-0.3-9.1-0.8c0,2.1-0.1,4.1-0.1,6.1l0,0.5
				c0,0.6-0.1,1.2-0.1,1.9c-0.1,1.2-0.1,2.3-0.1,3.5v3.1l-0.1-0.2c0,0.3-0.1,0.6-0.1,0.9c-0.1,0.7-0.1,1.5-0.1,2.1
				c0,0.5,0,0.9,0,1.1c0.2,0,0.4,0,0.7,0c0.4,0,0.8-0.1,1.3-0.2l2.1-0.6v0.9l2,2l0,0.1c0.3,2.8,0.6,5.1,0.9,6.8l0.1,0.4l-3.5,0
				c-0.3,0-0.6,0-0.9,0c-0.8,0-1.7,0-2.6-0.1l0.2,13.7h0.9c0.5,0,1,0,1.6,0.1l0.5,0c0.5,0.1,1,0.1,1.5,0.1l5.7,0.2v0.6l2,2v8.4
				l-0.3,0L92.4,224.8z M90.6,222.1l2,2.1l16.8-1.7v-7.6l-2-2v7.5l-0.3,0L90.6,222.1z M91.7,161c-0.8,0-0.9,0.2-1,0.4
				c-0.5,1.8,0,3.7,0.4,5.5c0.2,1.1,0.5,2.1,0.5,3.1c0.4,5.4,0.1,11.3-0.1,16.6c0,1.1-0.1,2.2-0.1,3.2c-0.1,4.7-0.1,10,0,15.1
				c0,2.4,0,4.8,0,7c0,0.6,0,1.2,0,1.8c0.1,2.8,0.1,5.8-0.6,7.7l16.1-1.7v-6.7c-1.5-0.1-2.8-0.2-4-0.2c-1.4-0.1-2.6-0.2-3.8-0.2
				c-1.4,0-2.6,0.1-4,0.4l-0.4,0.1l0-0.4l-0.2-18.5l0.4,0.1c1.1,0.2,2,0.3,3.1,0.3c0.5,0,1,0,1.6,0c0.5,0,1.1,0,1.7,0
				c-0.3-1.6-0.6-3.6-0.7-5.2c-0.1,0-0.2,0.1-0.3,0.1c-0.7,0.2-1.1,0.3-1.9,0.3c-1.3,0-2.3-0.4-3-1.1c-1.3-1.5-1.1-4.1-0.8-6.6
				c0.1-1,0.2-2,0.2-2.8h0c0-1.9,0.1-3.7,0.2-5.4c0.1-2.3,0.2-4.7,0.2-7.3v-0.4l0.3,0.1c3.3,0.6,5.5,0.9,8.9,0.9
				c-0.4-1.8-0.6-3.6-0.6-6H93.3c-0.3,0-0.5,0-0.8,0C92.2,161,92,161,91.7,161z M90.4,220.5v0.5c0.3-0.9,0.4-2,0.5-3.2
				C90.8,218.8,90.6,219.7,90.4,220.5z M90.8,210.4v4.7c0,0.2,0,0.4,0,0.5c0,0.1,0,0.2,0,0.2c0-0.7,0-1.4,0-2c0-0.7,0-1.3,0-1.9
				C90.8,211.5,90.8,210.9,90.8,210.4z M95.2,195.1l0.2,17.4c1.4-0.3,2.7-0.4,4.3-0.3c-0.3,0-0.6,0-0.8,0h-1.5v-0.3l-0.2-14.7
				l0.3,0.1c0.9,0.1,2,0.2,2.8,0.2c0.3,0,0.6,0,0.9,0l2.8,0c-0.3-1.7-0.6-3.8-0.8-6.4l-2-2v-0.3l-1.4,0.4c-0.5,0.1-0.9,0.2-1.3,0.3
				c0.6,0,1-0.1,1.6-0.3c0.2-0.1,0.4-0.1,0.7-0.2l0.4-0.1l0,0.4c0.1,1.8,0.5,4.1,0.8,5.9l0.1,0.4h-0.4c-0.8,0-1.4,0-2,0
				C98,195.3,96.6,195.3,95.2,195.1z M91.9,160.4c-1,0-1.6,0.3-1.8,0.9c-0.5,2.1-0.1,4.2,0.4,5.8c0.2,0.9,0.5,2.1,0.5,3l0,0.2
				c0.1,1.7,0.2,3.5,0.2,5.3c0,2.2-0.1,4.8-0.2,7.1c0,0.4,0,1,0,1.5c0,0.5,0,0.9,0,1.3l0,0.2c-0.1,1.5-0.1,3-0.1,4.3v0.1
				c0,0,0-0.1,0-0.1c0-1,0.1-2.1,0.1-3.2c0.2-5.3,0.5-11.2,0.1-16.6c-0.1-0.9-0.3-1.9-0.5-3c-0.4-1.9-0.9-3.8-0.4-5.8
				c0.2-0.9,1.2-0.9,1.6-0.9c0.3,0,0.5,0,0.8,0c0.1,0,0.1,0,0.2,0c-0.1,0-0.1,0-0.2,0c0,0-0.1,0-0.1,0
				C92.3,160.4,92.1,160.4,91.9,160.4z M95.3,181.4c0,0.3,0,0.5-0.1,0.8c-0.2,2.4-0.5,4.9,0.7,6.2c0.3,0.4,0.8,0.6,1.4,0.8l-0.1,0
				l0-0.1c-0.1-0.3-0.1-0.7-0.1-1.5c0-0.7,0.1-1.4,0.1-2.2c0-0.3,0.1-0.6,0.1-0.9c0-0.1,0-0.2,0-0.4c0-0.1,0-0.2,0-0.3v-0.8l0.1,0.1
				v-1.5c0-1.2,0.1-2.4,0.1-3.6c0-0.6,0.1-1.2,0.1-1.8l0-0.5c0.1-2.1,0.1-4.2,0.1-6.4v-0.4l0.3,0.1c2.9,0.5,5.2,0.8,9,0.8
				c-0.5-2.4-0.7-4.5-0.7-6.9l-2-2.1v-0.3H92.9c0.1,0,0.2,0,0.3,0h11.1v0.3c0,2.6,0.2,4.5,0.7,6.5l0.1,0.4h-0.4
				c-3.5,0-5.9-0.3-9-0.9c0,2.5-0.1,4.8-0.2,7c-0.1,2.4-0.2,4.8-0.2,7.6H95.3z"/>
		</g>
		<g>
			<path d="M89.7,221.6l0.4,0.7v-1.8C89.9,220.9,89.9,221.3,89.7,221.6z"/>
		</g>
		<g>
			<path d="M125.7,224.9l-0.4-0.2c-0.6-0.2-1.3-0.4-2.1-0.4c-0.4,0-0.8,0-1.2,0.1l-0.2,0c-0.4,0-0.9,0.1-1.5,0.1
				c-0.8,0-1.6-0.1-2.3-0.2l-0.1,0l-1.9-2c-0.1,0-0.2,0-0.2,0c-0.1,0-0.1,0-0.2,0h-0.3l0-0.3c-0.2-1.1-0.3-2.3-0.4-3.4
				c0-0.4-0.1-0.8-0.1-1.2l-0.3-2.1c-0.2-1.5-0.4-3.1-0.4-5.2c0-2.9,0.2-7.6,0.7-12.8c0.4-4.9,0.7-10.4,0.7-14c0-0.9,0-1.8,0.1-2.8
				l0-0.9c0.1-1.8,0.2-3.3,0.2-4.2c0-1.3-0.1-2.3-0.3-3.3h-2.3l-2-2.1h-0.6v-2.2c0-2.1,0-3.7-0.2-5.7l0-0.1l0.6-0.8h0.2
				c3.1,0,5.9-0.3,8.5-0.7c1-0.1,2.1-0.2,3.3-0.3c1-0.1,1.9-0.2,2.8-0.3l0.3,0v0.7l2,2.1v0.1c0,0.6,0,1.2,0,1.8c0,0.5,0,1,0,1.4
				c0.1,1.8,0.1,3.8-0.1,5.7l0,0.3h-5.6L125.7,224.9z M123.2,223.8c0.7,0,1.3,0.1,1.9,0.3l-3.3-52.7h5.7c0.2-1.8,0.1-3.7,0.1-5.4
				c0-0.4,0-0.9,0-1.4c0-0.5,0-1.1,0-1.7l-2-2.1v-0.2h0v0.3c0,1,0,1.9,0.1,2.8c0,1.6,0.1,3.1-0.1,5.4l0,0.3h-5.6l3.3,52.8l-0.4-0.1
				c-0.5-0.2-1.1-0.2-1.8-0.2c-0.5,0-1,0-1.5,0.1c-1,0.1-2.2,0.1-3.1,0l1.9,2c0.7,0.1,1.3,0.2,2.1,0.2c0.5,0,1,0,1.4-0.1l0.2,0
				C122.3,223.8,122.7,223.8,123.2,223.8z M116,221.7C116,221.7,116,221.7,116,221.7c0.1,0,0.2,0,0.3,0h0c0,0,0,0,0,0L116,221.7
				l0-0.2c-0.2-1.8-0.4-3.2-0.6-4.6c0-0.3-0.1-0.5-0.1-0.8l0.2,1.3c0,0.4,0.1,0.8,0.1,1.2C115.7,219.5,115.8,220.6,116,221.7z
				 M120.9,221.1c0.6,0,1.1,0,1.5,0.2l-3.3-52.6h5.7c0.1-2,0.1-3.5,0-5c0-0.8,0-1.6-0.1-2.5c-1.8,0.1-3.6,0.4-5.3,0.6
				c-2.7,0.3-5.2,0.7-8,0.7c0.2,1.9,0.2,3.5,0.2,5.4l0,1h3.4l0.1,0.1c2.1,1.7,1.9,6.3,1.7,10.8c-0.1,1.3-0.1,2.5-0.1,3.6
				c0,4-0.4,9.2-0.7,14.2c-0.3,4.8-0.7,9.4-0.7,12.7c0,2.6,0.3,4.6,0.6,6.6c0.2,1.3,0.4,2.7,0.6,4.4c0.9,0.1,1.9,0.1,2.9,0
				C119.9,221.1,120.4,221.1,120.9,221.1z M116.2,182.3c0,0.3,0,0.7,0,1c0,3.7-0.4,9.2-0.7,14.1c-0.4,5.2-0.7,9.9-0.7,12.7
				c0,0.7,0,1.3,0.1,1.9c0-0.6-0.1-1.2-0.1-1.9c0-3.3,0.3-7.9,0.7-12.7c0.4-5,0.7-10.2,0.7-14.1C116.2,183,116.2,182.6,116.2,182.3z
				 M113.5,171.5h2.6l0.1,0.2c0.1,0.3,0.1,0.6,0.2,0.8c-0.2-1.4-0.6-2.5-1.3-3.1l-3.8,0h0.3L113.5,171.5z M111,162.2
				c0.2,2,0.2,3.6,0.2,5.7v0.6l0-0.6C111.2,165.8,111.2,164.1,111,162.2L111,162.2z"/>
		</g>
		<g>
			<path d="M164.2,224.6h-0.2c-0.5,0-0.9-0.1-1.3-0.2l-0.1,0l-0.1-0.1c-1-0.2-2.1-0.3-2.7-0.3c-0.1,0-0.1,0-0.2,0l0,0.1l-1.2,0.1
				l-1.5-1.5v1.6l-0.5-2.1l-0.2-0.2l-0.6,0.1v-62.7h16.9v0.6l2,2v9h-8.8c-1,0.9-0.9,2.7-0.7,4.2c0.1,0.9,0.2,1.7,0.2,2.6
				c0,3.6-0.3,6.7-0.7,9.5l-0.1,0.9l4.9-0.2v0.7l2,2.1v6.4l-0.3,0c-2.1-0.3-2.9-0.3-4.4-0.3h-1.1l-0.5,0c-0.4,0-1,0.1-1.2,0.1
				c-0.1,0.4-0.1,1.1-0.1,1.7c0,0.8,0.1,1.6,0.1,2.3c0,0.3,0.1,0.5,0.1,0.8c0,0.2,0,0.4,0,0.6c0,0.1,0,0.3,0,0.4c0,0.5,0,1,0.1,1.5
				c0,1.4,0.1,2.8,0.2,4.4c0.2,3,0.4,6.4,0.4,9.2c0,2.5-0.1,4.5-0.6,6.3L164.2,224.6z M162.9,223.9c0.2,0.1,0.5,0.1,0.8,0.1
				c0.4-1.7,0.5-3.6,0.5-5.9c0-2.8-0.2-6.2-0.4-9.2c-0.2-1.6-0.2-3.1-0.2-4.4c0-0.5,0-1-0.1-1.5c0-0.1,0-0.2,0-0.3
				c0-0.2,0-0.4,0-0.6c0-0.2,0-0.5-0.1-0.8c-0.1-0.7-0.2-1.5-0.2-2.4c0-0.9,0-1.6,0.2-2.1c0-0.3,0.3-0.3,1.6-0.4l0.6,0h1.1
				c1.3,0,2.2,0,4.1,0.3v-5.5l-2-2.1l0-0.3v5.7l-0.3,0c-1.3-0.2-2.2-0.2-3.2-0.2l-0.3,0c-0.7,0-1.3,0-1.8,0.1c-0.2,0-0.4,0-0.6,0
				c-0.4,0-0.9,0.1-1.1,0.1c-0.4,1.3-0.2,3.7-0.1,5.1c0,0.4,0.1,0.7,0.1,0.9c0,1.7,0.2,3.7,0.3,5.8c0.4,5.3,0.8,11.4-0.1,15.2
				l-0.1,0.3l-0.3,0c-0.4-0.1-1-0.1-1.5-0.2c-0.8-0.1-1.7-0.3-2.3-0.3c-0.4,0-0.5,0.1-0.6,0.1v0.4l1.7,1.7l0.5,0
				c0.1-0.1,0.3-0.2,0.7-0.2c0.7,0,2,0.2,2.9,0.4L162.9,223.9L162.9,223.9z M156.4,160.1v61.3c0,0,0,0,0,0L156.4,160.1l15.7,0v8.4
				h-8.4c-1.5,0.9-1.3,2.5-1.1,4.6c0.1,0.8,0.2,1.7,0.2,2.6c0,3.5-0.3,6.6-0.6,9.6c-0.1,1.2-0.3,2.5-0.4,3.8l2.2-0.1l0.2-1.6
				c0.3-2.8,0.7-5.9,0.7-9.5c0-0.9-0.1-1.7-0.2-2.5c-0.2-1.7-0.3-3.8,1-4.8l0.1-0.1h8.4v-8.2l-2-2v-0.3H156.4z M157.6,220.8
				c0.7,0,1.6,0.1,2.4,0.3c0.4,0.1,0.8,0.1,1.2,0.2c0.8-3.7,0.4-9.6,0-14.7c-0.1-2.1-0.3-4.1-0.3-5.8c0-0.2,0-0.5-0.1-0.9
				c-0.2-1.6-0.4-4,0.1-5.4c0.1-0.4,0.6-0.4,1.7-0.5c0.2,0,0.4,0,0.6,0c0.1,0,0.3,0,0.5,0v0l1.7,0c1,0,1.8,0,3,0.2v-4.4l-7.2,0.2
				l0-0.3c0.1-1.4,0.3-2.8,0.4-4.1c0.3-3,0.6-6,0.6-9.5c0-0.9-0.1-1.8-0.2-2.6c-0.2-2.2-0.4-4.1,1.4-5.2l0.1,0h8v-7.2H157v60.2
				C157.2,220.8,157.4,220.8,157.6,220.8z"/>
		</g>
		<g>
			<path d="M181.8,225c-2,0-3.5-0.5-4.3-1.3l-1.5-1.5c-0.4-0.2-0.7-0.4-1-0.7l-0.1-0.1v-61.3h7.3v0.6l2,2.1v49.1c1,0.2,2,0.4,3,0.8
				l0.7,0.2c1.1,0.4,2.3,0.5,4.4,0.8l0.3,0v0.6l2,2v0.1c0,0.8-0.1,1.7-0.2,2.5c0,0.3-0.1,0.6-0.1,0.9c-0.2,1-0.2,2.2-0.2,3.6v0.3
				h-0.3c-1.9,0-3.6,0.3-5.5,0.6l-0.3,0.1c-0.4,0.1-0.8,0.1-1.2,0.2C185,224.8,183.3,225,181.8,225z M176.4,221.8l1.5,1.5
				c0.7,0.7,2.1,1.1,3.9,1.1c1.5,0,3.2-0.2,4.9-0.5c0.4-0.1,0.8-0.1,1.2-0.2l0.3-0.1c1.8-0.3,3.5-0.5,5.3-0.6c0-1.3,0.1-2.5,0.2-3.4
				c0-0.3,0-0.5,0.1-0.9c0.1-0.7,0.1-1.5,0.2-2.3l-2-2v0c0,1-0.1,2-0.2,2.9c-0.1,1-0.2,2.1-0.2,3.3v0.3h-0.3c-1.6,0-3.5,0.3-5.6,0.6
				c-2.1,0.3-4.3,0.7-6.1,0.7C178.2,222.4,177.2,222.2,176.4,221.8z M176.1,220.9c0.7,0.6,1.8,0.9,3.4,0.9c1.8,0,3.9-0.3,6-0.7
				c2-0.3,3.8-0.6,5.4-0.6c0-1.1,0.1-2.1,0.2-3.1c0.1-0.9,0.2-1.7,0.2-2.6c-1.8-0.2-3.2-0.6-4.5-1c-1.7-0.5-3.3-1-5.5-1H181v-51.6
				h-4.9V220.9z M189.2,213.8c0.8,0.2,1.6,0.3,2.6,0.4l0.3,0v-0.1C190.8,214.1,189.9,214,189.2,213.8z M181.6,212.3
				c2.2,0,3.7,0.5,5.4,1c0.2,0,0.3,0.1,0.5,0.1l-0.5-0.2c-1.1-0.4-2.1-0.6-3.2-0.8l-0.2,0V163l-2-2.1v-0.3l-6.1,0h6.1V212.3z"/>
		</g>
		<g>
			<path d="M196.8,224.8l-2.1-2.1l-0.4,0.1l-0.7-1.2l0.1-0.2c0.8-1.2,0.9-3.3,0.9-5.2c0-0.2,0-0.4,0-0.5c0-0.2,0-0.4,0-0.6v-25.2
				c0-1.3,0.1-2.6,0.1-4.1l0-0.5c0-0.3,0-0.8,0-1.3c0-0.5,0-1.1,0-1.5c0.1-2.3,0.2-4.9,0.2-7.1c0-1.8-0.1-3.5-0.2-5.4
				c-0.1-0.8-0.3-2-0.5-2.8c-0.5-1.6-0.9-3.8-0.4-6.1c0.4-1.4,1.9-1.4,2.3-1.4c0.2,0,0.4,0,0.6,0c0,0,0,0,0,0c0.1,0,0.2,0,0.3,0
				c0,0,0.1,0,0.1,0h12.1v0.6l2,2.1v0.1c0,2.6,0.1,4.8,0.7,7.3l0.1,0.4h-0.4c-3.9,0-6.2-0.3-9.1-0.8c0,2.1-0.1,4.1-0.1,6.1l0,0.5
				c0,0.6-0.1,1.2-0.1,1.9c-0.1,1.2-0.1,2.3-0.1,3.5v3.1l-0.1-0.2c0,0.3-0.1,0.6-0.1,0.9c-0.1,0.7-0.1,1.5-0.1,2.1
				c0,0.5,0,0.9,0,1.1c0.2,0,0.4,0,0.7,0c0.4,0,0.8-0.1,1.3-0.3l2.1-0.6v0.9l2,2l0,0.1c0.3,2.8,0.6,5.1,0.9,6.8l0.1,0.4l-3.5,0
				c-0.3,0-0.6,0-0.9,0c-0.8,0-1.7,0-2.6-0.1l0.1,13.7h0.9c0.5,0,1,0,1.6,0.1l0.5,0c0.5,0.1,1,0.1,1.5,0.1l5.7,0.2v0.6l2,2v8.4
				l-0.3,0L196.8,224.8z M195,222.1l2,2.1l16.8-1.7v-7.6l-2-2v-0.3l-3-0.1c0.8,0.1,1.7,0.1,2.7,0.1l0.3,0v7.8l-0.3,0L195,222.1z
				 M196.1,161c-0.8,0-0.9,0.2-1,0.4c-0.5,1.8,0,3.7,0.4,5.5c0.2,1.1,0.5,2.1,0.5,3.1c0.4,5.4,0.1,11.4-0.1,16.7
				c0,1.1-0.1,2.2-0.1,3.2c-0.2,4.7-0.1,10,0,15.1c0,2.4,0,4.8,0,7c0,0.6,0,1.2,0,1.8c0.1,2.8,0.1,5.8-0.6,7.7l16.1-1.7v-6.7
				c-1.5-0.1-2.8-0.2-4-0.2c-1.4-0.1-2.6-0.2-3.8-0.2c-1.4,0-2.6,0.1-4,0.4l-0.4,0.1l0-0.4l-0.2-18.5l0.4,0.1c1.1,0.2,2,0.3,3.1,0.3
				c0.5,0,1,0,1.6,0c0.5,0,1.1,0,1.7,0c-0.3-1.9-0.6-3.7-0.7-5.2c-0.1,0-0.2,0.1-0.3,0.1c-0.7,0.2-1.1,0.3-1.9,0.3
				c-1.3,0-2.3-0.4-3-1.1c-1.3-1.5-1.1-4.1-0.8-6.6c0.1-1,0.2-2,0.2-2.8h0c0-1.9,0.1-3.7,0.2-5.4c0.1-2.3,0.2-4.7,0.2-7.3v-0.4
				l0.3,0.1c3.3,0.6,5.5,0.9,8.9,0.9c-0.4-1.8-0.6-3.6-0.6-6h-10.5c-0.3,0-0.5,0-0.8,0C196.6,161,196.4,161,196.1,161z M195.2,209.4
				v5.7c0,0.2,0,0.4,0,0.5c0,0.1,0,0.2,0,0.2c0-0.7,0-1.4,0-2c0-0.7,0-1.3,0-1.9C195.2,211.1,195.2,210.3,195.2,209.4z M199.6,195.1
				l0.2,17.4c1.2-0.2,2.4-0.4,3.7-0.4c0.2,0,0.4,0,0.6,0c-0.3,0-0.6,0-0.8,0h-1.5v-0.3l-0.2-14.7l0.3,0.1c0.9,0.1,2,0.2,2.8,0.2
				c0.3,0,0.6,0,0.9,0l2.8,0c-0.3-1.7-0.6-3.8-0.8-6.4l-2-2v-0.3l-1.4,0.4c-0.5,0.1-0.9,0.2-1.3,0.3c0.6,0,1-0.1,1.6-0.3
				c0.2-0.1,0.4-0.1,0.7-0.2l0.4-0.1l0,0.4c0.1,1.7,0.4,3.7,0.8,5.9l0.1,0.4h-0.4c-0.8,0-1.4,0-2,0
				C202.4,195.4,201,195.3,199.6,195.1z M196.3,160.4c-1,0-1.6,0.3-1.8,0.9c-0.5,2.1-0.1,4.2,0.4,5.8c0.2,0.9,0.5,2.1,0.5,3
				c0.1,1.9,0.2,3.7,0.2,5.4c0,2.2-0.1,4.8-0.2,7.1c0,0.4,0,1,0,1.5c0,0.5,0,0.9,0,1.3l0,0.5c-0.1,1.4-0.1,2.8-0.1,4v0.3
				c0-0.1,0-0.2,0-0.3c0-1,0.1-2.1,0.1-3.2c0.2-5.3,0.5-11.3,0.1-16.6c-0.1-0.9-0.3-1.9-0.5-3c-0.4-1.9-0.9-3.8-0.4-5.8
				c0.2-0.9,1.2-0.9,1.6-0.9c0.3,0,0.5,0,0.8,0c0.1,0,0.1,0,0.2,0c-0.1,0-0.1,0-0.2,0c0,0-0.1,0-0.1,0
				C196.7,160.4,196.5,160.4,196.3,160.4z M199.7,181.4c0,0.3,0,0.5-0.1,0.8c-0.2,2.4-0.5,4.9,0.7,6.2c0.3,0.4,0.8,0.6,1.4,0.8
				l-0.1,0l0-0.1c-0.1-0.3-0.1-0.7-0.1-1.5c0-0.7,0.1-1.4,0.1-2.2c0-0.3,0.1-0.6,0.1-0.9c0-0.1,0-0.2,0-0.4c0-0.1,0-0.2,0-0.3V183
				l0.1,0.1v-1.5c0-1.2,0.1-2.4,0.1-3.6c0-0.6,0.1-1.2,0.1-1.8l0-0.5c0.1-2.1,0.1-4.2,0.1-6.4v-0.4l0.3,0.1c2.9,0.5,5.2,0.8,9,0.8
				c-0.5-2.4-0.7-4.5-0.7-6.9l-2-2.1v-0.3h-11.5c0.1,0,0.2,0,0.3,0h11.1v0.3c0,2.6,0.2,4.5,0.7,6.5l0.1,0.4h-0.4
				c-3.5,0-5.9-0.3-9-0.9c0,2.5-0.1,4.8-0.2,7c-0.1,2.4-0.2,4.8-0.2,7.6H199.7z"/>
		</g>
		<g>
			<path d="M223.3,224.6h-6.4l-2-2.1h-0.6v-7.9c0.8-4.2,1.3-8.6,1.9-13.4l0.3-2.6c0.6-5.4,1.3-11.2,2.1-16l0,0l0.5-3.3
				c0.7-4.4,1.4-8.5,1.9-13V166c0-0.1,0-0.3,0-0.4c0-0.1,0-0.3,0-0.4v-0.9c0-2.5,0.2-3.8,0.7-4.3c0.7-0.6,1.7-0.9,2.9-0.9
				c1,0,1.9,0.1,2.8,0.2l0.3,0.1c0.2,0,0.4,0.1,0.5,0.1c1.1,0.1,2.2,0.2,3.3,0.2h0.3v0.6l2,2.1v0.1c0,3.4,0.7,6,1.6,8.7
				c0.5,1.9,1.1,3.8,1.4,5.9l0.4,2.8c1.7,13,3.7,27.8,4.8,39.7v3.9h-5.4l-2-2.1h-0.6l0-0.3c-0.2-3.5-0.8-6.3-1.5-9.3l-0.1-0.3
				c-0.6-2.3-1.2-4.9-1.5-7.8h-4.4L223.3,224.6z M217.1,224h5.7l3.1-20.9h5.4l0,0.3c0.3,3,0.9,5.6,1.5,8l0.1,0.3
				c0.7,2.9,1.2,5.7,1.5,9.1h0.3l2,2.1h4.6v-3.3c-1.1-11.9-3.1-26.6-4.8-39.6l-0.4-2.8c-0.3-2-0.8-3.9-1.3-5.8
				c-0.8-2.7-1.6-5.4-1.6-8.7l-2-2.1v-0.3c-0.5,0-0.9,0-1.4-0.1c0.4,0,0.8,0.1,1.1,0.1h0.3v0.3c0,3.1,0.7,5.6,1.5,8.3
				c0.5,1.9,1.1,3.8,1.4,5.9c0.4,3.4,0.9,7,1.4,10.7c1.4,10.9,2.9,22.2,3.8,31.8v3.5h-4.8l0-0.3c-0.2-3.1-0.8-5.9-1.5-8.8
				c-0.7-3.3-1.5-6.7-1.7-10.6h-7.4l-3.1,20.9h-5.9v-7.1c0.1-0.8,0.3-1.6,0.4-2.5c-0.1,0.8-0.3,1.6-0.4,2.4l0,7.2h0.3L217.1,224z
				 M215.4,221.3h4.8l3.1-20.9h8.5l0,0.3c0.1,4,0.9,7.5,1.7,10.8c0.7,2.9,1.3,5.7,1.5,8.7h3.7v-2.9c-0.9-9.5-2.4-20.8-3.8-31.7
				c-0.5-3.7-0.9-7.2-1.4-10.7c-0.3-2.1-0.8-4-1.4-5.8c-0.7-2.5-1.5-5.2-1.5-8.2c-0.7,0-1.6-0.1-2.5-0.3c-1.2-0.2-2.4-0.3-3.5-0.3
				c-1.1,0-1.8,0.2-2.2,0.5c-0.2,0.4-0.3,4.2-0.3,5.7c-0.6,5.3-1.4,10.5-2.5,16.4c-0.8,4.9-1.4,10.2-2,15.4
				c-0.6,5.6-1.3,11.4-2.2,16.5L215.4,221.3z M219,182.8c-0.8,4.8-1.5,10.5-2.1,15.9l-0.3,2.6c-0.1,1.1-0.3,2.3-0.4,3.3
				c0.3-2.1,0.5-4.3,0.8-6.4C217.6,193,218.2,187.7,219,182.8c1.1-6,1.9-11.1,2.5-16.4c0,0,0-0.3,0-0.7c0,0.1,0,0.1,0,0.2v0.5
				c-0.5,4.6-1.2,8.7-1.9,13.1l-0.3,1.8l0,0L219,182.8z M221.9,160.7c-0.1,0.4-0.3,1.2-0.3,2.8C221.6,162.3,221.7,161.2,221.9,160.7
				z M224.6,159.7c-0.7,0-1.2,0.1-1.7,0.3c1-0.3,2.8-0.2,4.6,0l-0.2,0C226.4,159.7,225.5,159.7,224.6,159.7z"/>
		</g>
		<g>
			<path d="M223.5,195.7v-0.4c0-4.7,0.5-9.2,0.9-13.6c0.4-4.3,0.9-8.8,0.9-13.4V168h2.9l0,0.3l3.9,27.4l-0.4-0.1
				c-1.3-0.2-2.9-0.3-4.4-0.3c-1.4,0-2.6,0.1-3.5,0.3L223.5,195.7z M227.4,194.7c1.3,0,2.8,0.1,4.1,0.3l0-0.1l-0.4-0.1
				c-0.7-0.1-1.5-0.2-2.1-0.2C228.4,194.6,227.9,194.6,227.4,194.7c-0.4,0-0.7,0-0.8,0C226.8,194.7,227.1,194.7,227.4,194.7z
				 M225.9,168.6c0,4.5-0.5,8.9-0.9,13.1c-0.4,4.3-0.9,8.7-0.9,13.2c0.6-0.1,1.3-0.2,2-0.2l0-0.3c0.2-3.4,0.5-6.9,0.9-10.4l0.1-0.7
				c0.3-3.2,0.5-6.2,0.8-9.5l0.2-2.9l1.8,12.1l-2-14.5H225.9z M229,194c0.5,0,1.2,0,1.8,0.1l-2.5-17.4c-0.2,2.3-0.4,4.5-0.6,6.7
				l-0.1,0.7c-0.4,3.3-0.7,6.6-0.9,9.9c0.3,0,0.9,0,1.4,0C228.4,194,228.7,194,229,194z"/>
		</g>
	</g>
</g>
</svg>
